<svg width="111" height="18" viewBox="0 0 111 18" fill="none" xmlns="http://www.w3.org/2000/svg">
<rect width="111" height="18" rx="1" fill="#FFB400"/>
<path d="M10.6648 5.72727V10.9261C10.6648 11.8317 10.2315 12.3182 9.47159 12.3182C8.77912 12.3182 8.27841 11.9134 8.27841 11.2955H7.41193C7.41193 12.4141 8.27841 13.0994 9.47159 13.0994C10.7358 13.0994 11.5455 12.3217 11.5455 10.9261V5.72727H10.6648ZM14.8018 13.1278C15.7536 13.1278 16.2507 12.6165 16.4212 12.2614H16.4638V13H17.3018V9.40625C17.3018 7.6733 15.9808 7.47443 15.2848 7.47443C14.4609 7.47443 13.5234 7.75852 13.0973 8.75284L13.8928 9.03693C14.0774 8.6392 14.5142 8.21307 15.3132 8.21307C16.0838 8.21307 16.4638 8.62145 16.4638 9.32102V9.34943C16.4638 9.75426 16.0518 9.71875 15.0575 9.84659C14.0455 9.97798 12.9411 10.2017 12.9411 11.4517C12.9411 12.517 13.7649 13.1278 14.8018 13.1278ZM14.9297 12.375C14.2621 12.375 13.7791 12.0767 13.7791 11.4943C13.7791 10.8551 14.3615 10.6562 15.0149 10.571C15.37 10.5284 16.3217 10.429 16.4638 10.2585V11.0256C16.4638 11.7074 15.924 12.375 14.9297 12.375ZM19.6696 9.71875C19.6696 8.76705 20.2591 8.22727 21.0616 8.22727C21.8393 8.22727 22.3116 8.73509 22.3116 9.59091V13H23.1497V9.53409C23.1497 8.14205 22.4075 7.47443 21.3031 7.47443C20.4792 7.47443 19.9679 7.84375 19.7122 8.39773H19.6412V7.54545H18.8315V13H19.6696V9.71875ZM30.0362 5.72727H29.1555L27.3374 6.93466V7.82955L29.1129 6.65057H29.1555V13H30.0362V5.72727ZM34.5 13.0994C36.1051 13.0994 37.0284 11.7393 37.0284 9.36364C37.0284 7.00568 36.0909 5.62784 34.5 5.62784C32.9091 5.62784 31.9716 7.00568 31.9716 9.36364C31.9716 11.7393 32.8949 13.0994 34.5 13.0994ZM34.5 12.3182C33.4418 12.3182 32.8239 11.2564 32.8239 9.36364C32.8239 7.47443 33.4489 6.39489 34.5 6.39489C35.5511 6.39489 36.1761 7.47443 36.1761 9.36364C36.1761 11.2564 35.5582 12.3182 34.5 12.3182ZM40.9347 5.72727H40.054L38.2358 6.93466V7.82955L40.0114 6.65057H40.054V13H40.9347V5.72727ZM45.4411 13.0994C46.9112 13.1172 47.87 12.0092 47.87 10.6562C47.87 9.25 46.8295 8.24148 45.5831 8.24148C44.8338 8.24148 44.1911 8.60724 43.7933 9.20739H43.7365C43.7401 7.43537 44.429 6.40909 45.5547 6.40909C46.3217 6.40909 46.7834 6.89205 46.9467 7.54545H47.8132C47.6357 6.41619 46.7763 5.62784 45.5547 5.62784C43.9176 5.62784 42.9126 7.0767 42.9126 9.64773C42.9126 12.3359 44.2479 13.0852 45.4411 13.0994ZM45.4411 12.3182C44.5284 12.3182 43.8608 11.5405 43.8643 10.6705C43.8679 9.80043 44.5675 9.02273 45.4695 9.02273C46.3608 9.02273 47.0178 9.75426 47.0178 10.6562C47.0178 11.5795 46.3324 12.3182 45.4411 12.3182ZM55.2182 8.97301H52.0364V9.75426H55.2182V8.97301ZM61.8633 13C64.0792 13 65.3292 11.6222 65.3292 9.34943C65.3292 7.09091 64.0792 5.72727 61.9627 5.72727H59.619V13H61.8633ZM60.4996 12.2188V6.50852H61.9059C63.6104 6.50852 64.4769 7.58807 64.4769 9.34943C64.4769 11.125 63.6104 12.2188 61.8065 12.2188H60.4996ZM68.9798 13.1136C70.0877 13.1136 70.8974 12.5597 71.1531 11.7358L70.3434 11.5085C70.1303 12.0767 69.6367 12.3608 68.9798 12.3608C67.9961 12.3608 67.3178 11.7251 67.2788 10.5568H71.2383V10.2017C71.2383 8.17045 70.0309 7.47443 68.8945 7.47443C67.4173 7.47443 66.4371 8.6392 66.4371 10.3153C66.4371 11.9915 67.4031 13.1136 68.9798 13.1136ZM67.2788 9.83239C67.3356 8.98366 67.9357 8.22727 68.8945 8.22727C69.8036 8.22727 70.386 8.90909 70.386 9.83239H67.2788ZM74.729 13.1136C75.9364 13.1136 76.7319 12.375 76.8739 11.4091H76.0359C75.8796 12.0057 75.3825 12.3608 74.729 12.3608C73.7347 12.3608 73.0955 11.5369 73.0955 10.2727C73.0955 9.03693 73.7489 8.22727 74.729 8.22727C75.4677 8.22727 75.908 8.68182 76.0359 9.17898H76.8739C76.7319 8.15625 75.8654 7.47443 74.7148 7.47443C73.2376 7.47443 72.2575 8.6392 72.2575 10.3011C72.2575 11.9347 73.195 13.1136 74.729 13.1136ZM80.8974 13H85.4854V12.2188H82.1048V12.1619L83.7383 10.4148C84.9883 9.07599 85.3576 8.45099 85.3576 7.64489C85.3576 6.52273 84.4485 5.62784 83.1701 5.62784C81.8952 5.62784 80.9258 6.49432 80.9258 7.77273H81.7638C81.7638 6.94531 82.3001 6.39489 83.1417 6.39489C83.93 6.39489 84.5337 6.87784 84.5337 7.64489C84.5337 8.31605 84.1396 8.81321 83.2979 9.73295L80.8974 12.3608V13ZM89.3242 13.0994C90.9293 13.0994 91.8526 11.7393 91.8526 9.36364C91.8526 7.00568 90.9151 5.62784 89.3242 5.62784C87.7333 5.62784 86.7958 7.00568 86.7958 9.36364C86.7958 11.7393 87.7191 13.0994 89.3242 13.0994ZM89.3242 12.3182C88.266 12.3182 87.6481 11.2564 87.6481 9.36364C87.6481 7.47443 88.2731 6.39489 89.3242 6.39489C90.3754 6.39489 91.0004 7.47443 91.0004 9.36364C91.0004 11.2564 90.3825 12.3182 89.3242 12.3182ZM93.2021 13H97.7901V12.2188H94.4094V12.1619L96.043 10.4148C97.293 9.07599 97.6623 8.45099 97.6623 7.64489C97.6623 6.52273 96.7532 5.62784 95.4748 5.62784C94.1999 5.62784 93.2305 6.49432 93.2305 7.77273H94.0685C94.0685 6.94531 94.6048 6.39489 95.4464 6.39489C96.2347 6.39489 96.8384 6.87784 96.8384 7.64489C96.8384 8.31605 96.4442 8.81321 95.6026 9.73295L93.2021 12.3608V13ZM101.814 5.72727H100.933L99.1147 6.93466V7.82955L100.89 6.65057H100.933V13H101.814V5.72727Z" fill="white"/>
</svg>
