<svg width="65" height="493" viewBox="0 0 65 493" fill="none" xmlns="http://www.w3.org/2000/svg">
<path fill-rule="evenodd" clip-rule="evenodd" d="M2 0C0.895431 0 0 0.89543 0 2V22C0 23.1046 0.89543 24 2 24H26.8039L32 33L37.1962 24H63C64.1046 24 65 23.1046 65 22V2C65 0.895431 64.1046 0 63 0H2Z" fill="#2B2B2B"/>
<path d="M15.9588 18H17.2756V14.1946H21.6264V18H22.9474V9.27273H21.6264V13.0653H17.2756V9.27273H15.9588V18ZM27.5199 18.1321C29.3651 18.1321 30.571 16.7812 30.571 14.7571C30.571 12.7202 29.3651 11.3693 27.5199 11.3693C25.6747 11.3693 24.4688 12.7202 24.4688 14.7571C24.4688 16.7812 25.6747 18.1321 27.5199 18.1321ZM27.5241 17.0625C26.3182 17.0625 25.7557 16.0099 25.7557 14.7528C25.7557 13.5 26.3182 12.4347 27.5241 12.4347C28.7216 12.4347 29.2841 13.5 29.2841 14.7528C29.2841 16.0099 28.7216 17.0625 27.5241 17.0625ZM31.9933 18H33.2674V13.9645C33.2674 13.0824 33.8853 12.4688 34.6097 12.4688C35.3171 12.4688 35.8072 12.9375 35.8072 13.6491V18H37.0771V13.8281C37.0771 13.0398 37.5586 12.4688 38.3896 12.4688C39.0629 12.4688 39.6168 12.8438 39.6168 13.7301V18H40.891V13.6108C40.891 12.1151 40.0558 11.3693 38.8711 11.3693C37.9293 11.3693 37.2219 11.821 36.9066 12.5199H36.8384C36.5529 11.804 35.9521 11.3693 35.0785 11.3693C34.2134 11.3693 33.57 11.7997 33.2972 12.5199H33.2163V11.4545H31.9933V18ZM45.4197 18.1321C46.8473 18.1321 47.8572 17.429 48.147 16.3636L46.9411 16.1463C46.7109 16.7642 46.157 17.0795 45.4325 17.0795C44.3416 17.0795 43.6087 16.3722 43.5746 15.1108H48.228V14.6591C48.228 12.294 46.8132 11.3693 45.3303 11.3693C43.5064 11.3693 42.3047 12.7585 42.3047 14.7699C42.3047 16.8026 43.4893 18.1321 45.4197 18.1321ZM43.5788 14.1562C43.63 13.2273 44.3033 12.4219 45.3388 12.4219C46.3274 12.4219 46.9751 13.1548 46.9794 14.1562H43.5788Z" fill="white"/>
<circle cx="33" cy="58" r="20" fill="#FFB400"/>
<g clip-path="url(#clip0_2_579)">
<path d="M39 63.9999C39 64.1989 38.921 64.3896 38.7803 64.5303C38.6397 64.6709 38.4489 64.7499 38.25 64.7499H27.75C27.5511 64.7499 27.3603 64.6709 27.2197 64.5303C27.079 64.3896 27 64.1989 27 63.9999V57.2499H24.75L32.4952 50.2089C32.6333 50.0833 32.8133 50.0137 33 50.0137C33.1867 50.0137 33.3667 50.0833 33.5048 50.2089L41.25 57.2499H39V63.9999Z" fill="#2B2B2B"/>
</g>
<circle cx="33" cy="141" r="20" fill="#F0F0F6"/>
<g clip-path="url(#clip1_2_579)">
<path d="M41.5 136.287V136.5H36V132H36.2603C36.5338 132 36.7962 132.089 36.9896 132.247L41.198 135.69C41.3913 135.849 41.5 136.063 41.5 136.287ZM35.6562 137.625C35.0891 137.625 34.625 137.245 34.625 136.781V132H26.0312C25.4617 132 25 132.378 25 132.844V149.156C25 149.622 25.4617 150 26.0312 150H40.4688C41.0383 150 41.5 149.622 41.5 149.156V137.625H35.6562ZM30.294 146.08C30.2732 146.098 30.2482 146.113 30.2204 146.123C30.1926 146.134 30.1627 146.139 30.1322 146.14C30.1018 146.141 30.0714 146.137 30.0429 146.128C30.0144 146.119 29.9883 146.106 29.966 146.089L27.1788 143.951C27.1557 143.933 27.1372 143.912 27.1246 143.888C27.112 143.864 27.1055 143.838 27.1055 143.812C27.1055 143.787 27.112 143.761 27.1246 143.737C27.1372 143.713 27.1557 143.692 27.1788 143.674L29.966 141.536C29.9883 141.519 30.0144 141.506 30.0429 141.497C30.0714 141.488 30.1018 141.484 30.1322 141.485C30.1627 141.486 30.1926 141.491 30.2204 141.502C30.2482 141.512 30.2732 141.527 30.294 141.545L31.1353 142.279C31.1566 142.298 31.173 142.319 31.1838 142.343C31.1945 142.367 31.1993 142.392 31.1978 142.418C31.1963 142.443 31.1886 142.468 31.1751 142.491C31.1616 142.514 31.1426 142.535 31.1193 142.551L29.3678 143.812L31.1193 145.074C31.1426 145.09 31.1616 145.111 31.1751 145.134C31.1886 145.157 31.1963 145.182 31.1978 145.207C31.1993 145.233 31.1945 145.258 31.1838 145.282C31.173 145.306 31.1566 145.327 31.1353 145.346L30.294 146.08ZM32.4981 147.855L31.3185 147.575C31.2594 147.561 31.2095 147.528 31.1799 147.484C31.1502 147.44 31.1432 147.388 31.1603 147.339L33.8003 139.899C33.8175 139.851 33.8574 139.81 33.9113 139.786C33.9653 139.762 34.0287 139.756 34.0878 139.77L35.2674 140.05C35.2967 140.057 35.324 140.069 35.3478 140.084C35.3716 140.1 35.3914 140.119 35.406 140.141C35.4207 140.163 35.43 140.187 35.4334 140.212C35.4367 140.236 35.434 140.262 35.4256 140.286L32.7856 147.725C32.7771 147.749 32.7629 147.772 32.7439 147.791C32.7248 147.811 32.7013 147.827 32.6746 147.839C32.6479 147.851 32.6186 147.859 32.5883 147.861C32.558 147.864 32.5274 147.862 32.4981 147.855ZM39.4071 143.951L36.6199 146.089C36.5977 146.106 36.5716 146.119 36.5431 146.128C36.5145 146.137 36.4842 146.141 36.4537 146.14C36.4233 146.139 36.3933 146.134 36.3655 146.123C36.3378 146.113 36.3128 146.098 36.2919 146.08L35.4506 145.346C35.4293 145.327 35.4129 145.306 35.4021 145.282C35.3914 145.258 35.3866 145.232 35.3881 145.207C35.3896 145.182 35.3973 145.157 35.4108 145.134C35.4243 145.111 35.4433 145.09 35.4666 145.074L37.2182 143.812L35.4666 142.551C35.4433 142.535 35.4243 142.514 35.4108 142.491C35.3974 142.468 35.3896 142.443 35.3882 142.418C35.3867 142.392 35.3914 142.367 35.4022 142.343C35.4129 142.319 35.4294 142.298 35.4506 142.279L36.292 141.545C36.3128 141.527 36.3378 141.512 36.3656 141.502C36.3934 141.491 36.4233 141.486 36.4538 141.485C36.4842 141.484 36.5146 141.488 36.5431 141.497C36.5716 141.506 36.5977 141.519 36.62 141.536L39.4072 143.674C39.4303 143.692 39.4488 143.713 39.4614 143.737C39.474 143.761 39.4805 143.787 39.4805 143.812C39.4805 143.838 39.474 143.864 39.4613 143.888C39.4487 143.912 39.4303 143.933 39.4071 143.951Z" fill="#767676"/>
</g>
<circle cx="33" cy="224" r="20" fill="#F0F0F6"/>
<g clip-path="url(#clip2_2_579)">
<path d="M36.7636 226.272L33.25 229.626L29.7364 226.272C27.103 226.381 25 228.438 25 230.976V231.313C25 232.245 25.7919 233.001 26.7679 233.001H39.7321C40.7081 233.001 41.5 232.245 41.5 231.313V230.976C41.5 228.438 39.397 226.381 36.7636 226.272ZM25.5009 217.806L25.7366 217.859V219.912C25.4788 220.06 25.2946 220.317 25.2946 220.626C25.2946 220.921 25.4641 221.167 25.7035 221.318L25.1289 223.509C25.0663 223.751 25.2063 224.001 25.4088 224.001H26.9483C27.1509 224.001 27.2908 223.751 27.2282 223.509L26.6537 221.318C26.8931 221.167 27.0625 220.921 27.0625 220.626C27.0625 220.317 26.8783 220.06 26.6205 219.912V218.063L29.0513 218.622C28.7346 219.227 28.5357 219.902 28.5357 220.626C28.5357 223.111 30.6461 225.126 33.25 225.126C35.8539 225.126 37.9643 223.111 37.9643 220.626C37.9643 219.902 37.7691 219.227 37.4487 218.622L40.9954 217.806C41.6657 217.652 41.6657 216.854 40.9954 216.699L33.9829 215.082C33.5041 214.973 32.9996 214.973 32.5208 215.082L25.5009 216.695C24.8343 216.85 24.8343 217.652 25.5009 217.806Z" fill="#767676"/>
</g>
<circle cx="33" cy="307" r="20" fill="#F0F0F6"/>
<g clip-path="url(#clip3_2_579)">
<path d="M30.75 307.75V310H35.25V307.75H40.5V313C40.5 313.199 40.421 313.39 40.2803 313.53C40.1397 313.671 39.9489 313.75 39.75 313.75H26.25C26.0511 313.75 25.8603 313.671 25.7197 313.53C25.579 313.39 25.5 313.199 25.5 313V307.75H30.75ZM32.25 306.25H33.75V308.5H32.25V306.25ZM29.25 301.75V299.5C29.25 299.301 29.329 299.11 29.4697 298.97C29.6103 298.829 29.8011 298.75 30 298.75H36C36.1989 298.75 36.3897 298.829 36.5303 298.97C36.671 299.11 36.75 299.301 36.75 299.5V301.75H39.75C39.9489 301.75 40.1397 301.829 40.2803 301.97C40.421 302.11 40.5 302.301 40.5 302.5V306.25H35.25V304.75H30.75V306.25H25.5V302.5C25.5 302.301 25.579 302.11 25.7197 301.97C25.8603 301.829 26.0511 301.75 26.25 301.75H29.25ZM30.75 300.25V301.75H35.25V300.25H30.75Z" fill="#767676"/>
</g>
<circle cx="33" cy="390" r="20" fill="#F0F0F6"/>
<g clip-path="url(#clip4_2_579)">
<path d="M39.75 382.5C28.5 382.5 27 393 26.25 397.5H27.7485C28.248 395 29.4983 393.625 31.5 393.375C34.5 393 36.75 390.375 37.5 388.125L36.375 387.375L37.125 386.625C37.875 385.875 38.628 384.75 39.75 382.5Z" fill="#767676"/>
</g>
<circle cx="33" cy="473" r="20" fill="#F0F0F6"/>
<g clip-path="url(#clip5_2_579)">
<path d="M28.8412 478.25L25.5 480.875V467C25.5 466.801 25.579 466.61 25.7197 466.47C25.8603 466.329 26.0511 466.25 26.25 466.25H39.75C39.9489 466.25 40.1397 466.329 40.2803 466.47C40.421 466.61 40.5 466.801 40.5 467V477.5C40.5 477.699 40.421 477.89 40.2803 478.03C40.1397 478.171 39.9489 478.25 39.75 478.25H28.8412Z" fill="#767676"/>
</g>
<defs>
<clipPath id="clip0_2_579">
<rect width="18" height="18" fill="white" transform="translate(24 49)"/>
</clipPath>
<clipPath id="clip1_2_579">
<rect width="16.5" height="18" fill="white" transform="translate(25 132)"/>
</clipPath>
<clipPath id="clip2_2_579">
<rect width="18" height="18" fill="white" transform="translate(24 215)"/>
</clipPath>
<clipPath id="clip3_2_579">
<rect width="18" height="18" fill="white" transform="translate(24 298)"/>
</clipPath>
<clipPath id="clip4_2_579">
<rect width="18" height="18" fill="white" transform="translate(24 381)"/>
</clipPath>
<clipPath id="clip5_2_579">
<rect width="18" height="18" fill="white" transform="translate(24 464)"/>
</clipPath>
</defs>
</svg>
