<svg width="189" height="58" viewBox="0 0 189 58" fill="none" xmlns="http://www.w3.org/2000/svg">
<g filter="url(#filter0_d_2_5148)">
<rect x="10" y="9" width="169" height="38" rx="19" fill="#FFB400"/>
</g>
<path d="M61.2415 28.9091C61.2415 30.0194 61.031 30.964 60.6101 31.7429C60.1925 32.5218 59.6224 33.1167 58.8999 33.5277C58.1806 33.9354 57.3719 34.1392 56.4737 34.1392C55.5689 34.1392 54.7569 33.9337 54.0376 33.5227C53.3184 33.1117 52.75 32.5168 52.3324 31.7379C51.9148 30.959 51.706 30.0161 51.706 28.9091C51.706 27.7988 51.9148 26.8542 52.3324 26.0753C52.75 25.2964 53.3184 24.7031 54.0376 24.2955C54.7569 23.8845 55.5689 23.679 56.4737 23.679C57.3719 23.679 58.1806 23.8845 58.8999 24.2955C59.6224 24.7031 60.1925 25.2964 60.6101 26.0753C61.031 26.8542 61.2415 27.7988 61.2415 28.9091ZM59.0589 28.9091C59.0589 28.1899 58.9512 27.5833 58.7358 27.0895C58.5237 26.5956 58.2237 26.2211 57.8359 25.9659C57.4482 25.7107 56.9941 25.5831 56.4737 25.5831C55.9534 25.5831 55.4993 25.7107 55.1115 25.9659C54.7237 26.2211 54.4221 26.5956 54.2067 27.0895C53.9946 27.5833 53.8885 28.1899 53.8885 28.9091C53.8885 29.6283 53.9946 30.2348 54.2067 30.7287C54.4221 31.2225 54.7237 31.5971 55.1115 31.8523C55.4993 32.1075 55.9534 32.2351 56.4737 32.2351C56.9941 32.2351 57.4482 32.1075 57.8359 31.8523C58.2237 31.5971 58.5237 31.2225 58.7358 30.7287C58.9512 30.2348 59.0589 29.6283 59.0589 28.9091ZM62.8361 34V23.8182H66.8532C67.6221 23.8182 68.2784 23.9557 68.8219 24.2308C69.3688 24.5026 69.7847 24.8887 70.0698 25.3892C70.3581 25.8864 70.5023 26.4714 70.5023 27.1442C70.5023 27.8203 70.3565 28.402 70.0648 28.8892C69.7731 29.3731 69.3506 29.7443 68.7971 30.0028C68.2469 30.2614 67.5807 30.3906 66.7985 30.3906H64.1088V28.6605H66.4505C66.8614 28.6605 67.2028 28.6042 67.4746 28.4915C67.7464 28.3788 67.9486 28.2098 68.0811 27.9844C68.217 27.759 68.285 27.4789 68.285 27.1442C68.285 26.8061 68.217 26.5211 68.0811 26.2891C67.9486 26.0571 67.7447 25.8814 67.4696 25.7621C67.1979 25.6394 66.8548 25.5781 66.4405 25.5781H64.9888V34H62.8361ZM68.3347 29.3665L70.8652 34H68.4888L66.013 29.3665H68.3347ZM75.633 34H72.0236V23.8182H75.6628C76.687 23.8182 77.5686 24.022 78.3077 24.4297C79.0468 24.834 79.6152 25.4157 80.013 26.1747C80.414 26.9337 80.6145 27.8419 80.6145 28.8991C80.6145 29.9598 80.414 30.8712 80.013 31.6335C79.6152 32.3958 79.0435 32.9808 78.2978 33.3885C77.5553 33.7962 76.6671 34 75.633 34ZM74.1763 32.1555H75.5435C76.1799 32.1555 76.7151 32.0429 77.1493 31.8175C77.5868 31.5888 77.915 31.2358 78.1337 30.7585C78.3558 30.2779 78.4668 29.6581 78.4668 28.8991C78.4668 28.1468 78.3558 27.532 78.1337 27.0547C77.915 26.5774 77.5885 26.2261 77.1543 26.0007C76.7201 25.7753 76.1848 25.6626 75.5485 25.6626H74.1763V32.1555ZM82.2092 34V23.8182H89.07V25.593H84.3619V28.0192H88.717V29.794H84.3619V32.2251H89.0898V34H82.2092ZM90.7814 34V23.8182H94.7985C95.5674 23.8182 96.2237 23.9557 96.7672 24.2308C97.3141 24.5026 97.7301 24.8887 98.0151 25.3892C98.3034 25.8864 98.4476 26.4714 98.4476 27.1442C98.4476 27.8203 98.3018 28.402 98.0101 28.8892C97.7185 29.3731 97.2959 29.7443 96.7424 30.0028C96.1922 30.2614 95.526 30.3906 94.7438 30.3906H92.0542V28.6605H94.3958C94.8068 28.6605 95.1481 28.6042 95.4199 28.4915C95.6917 28.3788 95.8939 28.2098 96.0265 27.9844C96.1623 27.759 96.2303 27.4789 96.2303 27.1442C96.2303 26.8061 96.1623 26.5211 96.0265 26.2891C95.8939 26.0571 95.69 25.8814 95.415 25.7621C95.1432 25.6394 94.8001 25.5781 94.3858 25.5781H92.9341V34H90.7814ZM96.28 29.3665L98.8105 34H96.4341L93.9583 29.3665H96.28ZM111.725 23.8182V34H109.866L105.436 27.5916H105.362V34H103.209V23.8182H105.098L109.493 30.2216H109.583V23.8182H111.725ZM122.861 28.9091C122.861 30.0194 122.65 30.964 122.229 31.7429C121.812 32.5218 121.242 33.1167 120.519 33.5277C119.8 33.9354 118.991 34.1392 118.093 34.1392C117.188 34.1392 116.376 33.9337 115.657 33.5227C114.938 33.1117 114.369 32.5168 113.952 31.7379C113.534 30.959 113.325 30.0161 113.325 28.9091C113.325 27.7988 113.534 26.8542 113.952 26.0753C114.369 25.2964 114.938 24.7031 115.657 24.2955C116.376 23.8845 117.188 23.679 118.093 23.679C118.991 23.679 119.8 23.8845 120.519 24.2955C121.242 24.7031 121.812 25.2964 122.229 26.0753C122.65 26.8542 122.861 27.7988 122.861 28.9091ZM120.678 28.9091C120.678 28.1899 120.57 27.5833 120.355 27.0895C120.143 26.5956 119.843 26.2211 119.455 25.9659C119.067 25.7107 118.613 25.5831 118.093 25.5831C117.573 25.5831 117.118 25.7107 116.731 25.9659C116.343 26.2211 116.041 26.5956 115.826 27.0895C115.614 27.5833 115.508 28.1899 115.508 28.9091C115.508 29.6283 115.614 30.2348 115.826 30.7287C116.041 31.2225 116.343 31.5971 116.731 31.8523C117.118 32.1075 117.573 32.2351 118.093 32.2351C118.613 32.2351 119.067 32.1075 119.455 31.8523C119.843 31.5971 120.143 31.2225 120.355 30.7287C120.57 30.2348 120.678 29.6283 120.678 28.9091ZM126.364 34L123.451 23.8182H125.803L127.488 30.8928H127.572L129.432 23.8182H131.445L133.3 30.9077H133.389L135.075 23.8182H137.426L134.513 34H132.415L130.476 27.343H130.396L128.462 34H126.364Z" fill="#2B2B2B"/>
<defs>
<filter id="filter0_d_2_5148" x="0" y="0" width="189" height="58" filterUnits="userSpaceOnUse" color-interpolation-filters="sRGB">
<feFlood flood-opacity="0" result="BackgroundImageFix"/>
<feColorMatrix in="SourceAlpha" type="matrix" values="0 0 0 0 0 0 0 0 0 0 0 0 0 0 0 0 0 0 127 0" result="hardAlpha"/>
<feOffset dy="1"/>
<feGaussianBlur stdDeviation="5"/>
<feColorMatrix type="matrix" values="0 0 0 0 0 0 0 0 0 0 0 0 0 0 0 0 0 0 0.15 0"/>
<feBlend mode="normal" in2="BackgroundImageFix" result="effect1_dropShadow_2_5148"/>
<feBlend mode="normal" in="SourceGraphic" in2="effect1_dropShadow_2_5148" result="shape"/>
</filter>
</defs>
</svg>
