<svg width="219" height="24" viewBox="0 0 219 24" fill="none" xmlns="http://www.w3.org/2000/svg">
<circle cx="12" cy="12" r="12" fill="#FFB400"/>
<g clip-path="url(#clip0_2_455)">
<path d="M13.1668 12.8748H14.6252L15.2085 10.5415H13.1668V9.37484C13.1668 8.774 13.1668 8.20817 14.3335 8.20817H15.2085V6.24817C15.0183 6.22309 14.3002 6.1665 13.5419 6.1665C11.9582 6.1665 10.8335 7.13309 10.8335 8.90817V10.5415H9.0835V12.8748H10.8335V17.8332H13.1668V12.8748Z" fill="#2B2B2B"/>
</g>
<circle cx="51" cy="12" r="12" fill="#FFB400"/>
<g clip-path="url(#clip1_2_455)">
<path d="M50.9998 6.1665C52.5848 6.1665 52.7825 6.17234 53.4043 6.2015C54.0256 6.23067 54.4485 6.32809 54.8207 6.47275C55.2057 6.62092 55.53 6.82159 55.8543 7.14534C56.151 7.43694 56.3805 7.78968 56.5269 8.179C56.671 8.55059 56.769 8.97409 56.7982 9.59534C56.8256 10.2172 56.8332 10.4149 56.8332 11.9998C56.8332 13.5848 56.8273 13.7825 56.7982 14.4043C56.769 15.0256 56.671 15.4485 56.5269 15.8207C56.3809 16.2102 56.1513 16.563 55.8543 16.8543C55.5626 17.1509 55.2099 17.3804 54.8207 17.5269C54.4491 17.671 54.0256 17.769 53.4043 17.7982C52.7825 17.8256 52.5848 17.8332 50.9998 17.8332C49.4149 17.8332 49.2172 17.8273 48.5953 17.7982C47.9741 17.769 47.5512 17.671 47.179 17.5269C46.7895 17.3808 46.4367 17.1512 46.1453 16.8543C45.8487 16.5628 45.6191 16.21 45.4728 15.8207C45.3281 15.4491 45.2307 15.0256 45.2015 14.4043C45.1741 13.7825 45.1665 13.5848 45.1665 11.9998C45.1665 10.4149 45.1723 10.2172 45.2015 9.59534C45.2307 8.9735 45.3281 8.55117 45.4728 8.179C45.6187 7.78944 45.8483 7.43661 46.1453 7.14534C46.4368 6.84856 46.7896 6.61901 47.179 6.47275C47.5512 6.32809 47.9735 6.23067 48.5953 6.2015C49.2172 6.17409 49.4149 6.1665 50.9998 6.1665ZM50.9998 9.08317C50.2263 9.08317 49.4844 9.39046 48.9374 9.93744C48.3905 10.4844 48.0832 11.2263 48.0832 11.9998C48.0832 12.7734 48.3905 13.5153 48.9374 14.0622C49.4844 14.6092 50.2263 14.9165 50.9998 14.9165C51.7734 14.9165 52.5153 14.6092 53.0622 14.0622C53.6092 13.5153 53.9165 12.7734 53.9165 11.9998C53.9165 11.2263 53.6092 10.4844 53.0622 9.93744C52.5153 9.39046 51.7734 9.08317 50.9998 9.08317ZM54.7915 8.93734C54.7915 8.74395 54.7147 8.55848 54.5779 8.42174C54.4412 8.28499 54.2557 8.20817 54.0623 8.20817C53.869 8.20817 53.6835 8.28499 53.5467 8.42174C53.41 8.55848 53.3332 8.74395 53.3332 8.93734C53.3332 9.13072 53.41 9.31619 53.5467 9.45294C53.6835 9.58968 53.869 9.6665 54.0623 9.6665C54.2557 9.6665 54.4412 9.58968 54.5779 9.45294C54.7147 9.31619 54.7915 9.13072 54.7915 8.93734ZM50.9998 10.2498C51.464 10.2498 51.9091 10.4342 52.2373 10.7624C52.5655 11.0906 52.7498 11.5357 52.7498 11.9998C52.7498 12.464 52.5655 12.9091 52.2373 13.2373C51.9091 13.5655 51.464 13.7498 50.9998 13.7498C50.5357 13.7498 50.0906 13.5655 49.7624 13.2373C49.4342 12.9091 49.2498 12.464 49.2498 11.9998C49.2498 11.5357 49.4342 11.0906 49.7624 10.7624C50.0906 10.4342 50.5357 10.2498 50.9998 10.2498Z" fill="#2B2B2B"/>
</g>
<circle cx="90" cy="12" r="12" fill="#FFB400"/>
<g clip-path="url(#clip2_2_455)">
<path d="M95.9277 8.29953C95.4823 8.49652 95.0101 8.62589 94.5265 8.68337C95.0362 8.37854 95.4177 7.89879 95.5998 7.33353C95.1215 7.6182 94.5971 7.8177 94.0505 7.92562C93.6834 7.53279 93.1967 7.27226 92.6662 7.18454C92.1358 7.09682 91.5911 7.18682 91.1171 7.44055C90.643 7.69428 90.2661 8.09752 90.0448 8.58758C89.8236 9.07764 89.7705 9.62707 89.8937 10.1505C88.9237 10.1018 87.9747 9.84976 87.1084 9.41059C86.2422 8.97142 85.4779 8.35498 84.8653 7.60128C84.6485 7.97371 84.5346 8.39708 84.5352 8.82803C84.5352 9.67387 84.9657 10.4211 85.6202 10.8586C85.2329 10.8464 84.854 10.7418 84.5153 10.5535V10.5839C84.5155 11.1472 84.7104 11.6931 85.0671 12.1292C85.4238 12.5652 85.9203 12.8644 86.4724 12.9761C86.1129 13.0736 85.7359 13.0879 85.3699 13.0181C85.5256 13.503 85.829 13.9271 86.2377 14.2309C86.6464 14.5348 87.1398 14.7032 87.649 14.7127C87.143 15.1101 86.5635 15.4039 85.9439 15.5773C85.3242 15.7507 84.6764 15.8002 84.0376 15.723C85.1528 16.4402 86.4509 16.8209 87.7768 16.8197C92.2643 16.8197 94.7184 13.1021 94.7184 9.87804C94.7184 9.77304 94.7155 9.66687 94.7108 9.56303C95.1885 9.2178 95.6008 8.79013 95.9283 8.30012L95.9277 8.29953Z" fill="#2B2B2B"/>
</g>
<circle cx="129" cy="12" r="12" fill="#FFB400"/>
<g clip-path="url(#clip3_2_455)">
<path d="M126.048 7.91676C126.048 8.22618 125.925 8.52287 125.706 8.74155C125.487 8.96023 125.19 9.083 124.881 9.08285C124.572 9.08269 124.275 8.95963 124.056 8.74072C123.837 8.52182 123.715 8.22501 123.715 7.9156C123.715 7.60618 123.838 7.30949 124.057 7.09081C124.276 6.87213 124.573 6.74936 124.882 6.74951C125.192 6.74967 125.488 6.87273 125.707 7.09163C125.926 7.31053 126.048 7.60734 126.048 7.91676ZM126.083 9.94676H123.75V17.2501H126.083V9.94676ZM129.77 9.94676H127.448V17.2501H129.747V13.4176C129.747 11.2826 132.529 11.0843 132.529 13.4176V17.2501H134.833V12.6243C134.833 9.0251 130.715 9.15926 129.747 10.9268L129.77 9.94676Z" fill="#2B2B2B"/>
</g>
<circle cx="168" cy="12" r="12" fill="#FFB400"/>
<g clip-path="url(#clip4_2_455)">
<path d="M173.567 8.79066C173.833 9.83016 173.833 12.0002 173.833 12.0002C173.833 12.0002 173.833 14.1702 173.567 15.2097C173.418 15.7842 172.985 16.2363 172.436 16.3892C171.439 16.6668 168 16.6668 168 16.6668C168 16.6668 164.562 16.6668 163.564 16.3892C163.012 16.234 162.58 15.7825 162.433 15.2097C162.167 14.1702 162.167 12.0002 162.167 12.0002C162.167 12.0002 162.167 9.83016 162.433 8.79066C162.581 8.21608 163.015 7.764 163.564 7.61116C164.562 7.3335 168 7.3335 168 7.3335C168 7.3335 171.439 7.3335 172.436 7.61116C172.987 7.76633 173.42 8.21783 173.567 8.79066ZM166.833 14.0418L170.333 12.0002L166.833 9.9585V14.0418Z" fill="#2B2B2B"/>
</g>
<circle cx="207" cy="12" r="12" fill="#FFB400"/>
<g clip-path="url(#clip5_2_455)">
<path d="M211.66 11.7502C211.612 10.832 211.293 9.94861 210.743 9.21209C210.575 9.3927 210.396 9.56223 210.206 9.71959C209.623 10.2037 208.972 10.5988 208.273 10.8921C208.371 11.0963 208.46 11.294 208.539 11.4807V11.4824C208.561 11.5346 208.582 11.5871 208.603 11.6399C209.486 11.5408 210.417 11.5769 211.319 11.6988C211.44 11.7152 211.553 11.7327 211.66 11.7502ZM206.186 7.40434C206.754 8.20535 207.278 9.03688 207.756 9.89517C208.469 9.614 209.059 9.25934 209.534 8.86442C209.699 8.72858 209.854 8.58142 209.998 8.424C209.159 7.71801 208.097 7.33161 207 7.33317C206.727 7.33298 206.454 7.3566 206.186 7.40375V7.40434ZM202.481 10.8314C202.878 10.8214 203.275 10.7975 203.671 10.7597C204.627 10.6741 205.575 10.5138 206.507 10.2802C206.02 9.43446 205.495 8.61167 204.932 7.81442C204.331 8.11215 203.801 8.53566 203.378 9.05621C202.955 9.57677 202.649 10.1822 202.481 10.8314ZM203.373 14.9369C203.6 14.6062 203.897 14.234 204.292 13.8292C205.14 12.96 206.141 12.2833 207.3 11.91L207.336 11.8995C207.24 11.6872 207.149 11.4976 207.058 11.3191C205.987 11.6312 204.859 11.826 203.735 11.9269C203.187 11.9765 202.695 11.9981 202.333 12.0016C202.332 13.0706 202.7 14.1073 203.374 14.9369H203.373ZM208.753 16.3253C208.528 15.1908 208.209 14.0769 207.801 12.995C206.633 13.4191 205.703 14.0392 204.983 14.7788C204.693 15.0719 204.435 15.3956 204.215 15.7443C205.019 16.3444 205.996 16.6679 207 16.6665C207.601 16.6674 208.196 16.5519 208.753 16.3264V16.3253ZM209.845 15.6982C210.756 14.998 211.376 13.9865 211.588 12.8573C211.389 12.8078 211.138 12.7582 210.862 12.7197C210.247 12.6311 209.623 12.6247 209.007 12.7004C209.354 13.6797 209.634 14.6815 209.845 15.6988V15.6982ZM207 17.8332C203.778 17.8332 201.167 15.2216 201.167 11.9998C201.167 8.77809 203.778 6.1665 207 6.1665C210.222 6.1665 212.833 8.77809 212.833 11.9998C212.833 15.2216 210.222 17.8332 207 17.8332Z" fill="#2B2B2B"/>
</g>
<defs>
<clipPath id="clip0_2_455">
<rect width="14" height="14" fill="white" transform="translate(5 5)"/>
</clipPath>
<clipPath id="clip1_2_455">
<rect width="14" height="14" fill="white" transform="translate(44 5)"/>
</clipPath>
<clipPath id="clip2_2_455">
<rect width="14" height="14" fill="white" transform="translate(83 5)"/>
</clipPath>
<clipPath id="clip3_2_455">
<rect width="14" height="14" fill="white" transform="translate(122 5)"/>
</clipPath>
<clipPath id="clip4_2_455">
<rect width="14" height="14" fill="white" transform="translate(161 5)"/>
</clipPath>
<clipPath id="clip5_2_455">
<rect width="14" height="14" fill="white" transform="translate(200 5)"/>
</clipPath>
</defs>
</svg>
